<svg xmlns="http://www.w3.org/2000/svg" viewBox="0 0 100 100"><path d="M99,14.78C99,6.93,95.71,1,91.34,1H8.66C4.29,1,1,6.93,1,14.78c0,5.47,1.59,10,4,12.25-2.45,2.25-4,6.78-4,12.25,0,7.86,3.29,13.78,7.66,13.78H27A1.53,1.53,0,0,0,27,50h-5.8C22.93,47.52,24,43.71,24,39.28s-1-8.24-2.74-10.72H25.5c3.17,0,4.59,1.43,4.59,4.6V91.34c0,4.87,2.79,7.66,7.66,7.66H77.56c4.87,0,7.66-2.79,7.66-7.66V88.28a1.54,1.54,0,0,0-1.53-1.53H43.87a1.54,1.54,0,0,0-1.53,1.53v3.06c0,3.19-1.42,4.6-4.59,4.6s-4.59-1.41-4.59-4.6V33.16A8.46,8.46,0,0,0,32,28.56H71.44c3.17,0,4.59,1.43,4.59,4.6v49a1.53,1.53,0,0,0,3.06,0v-49a8.46,8.46,0,0,0-1.16-4.6h5.76c2.17,0,4.59,4.58,4.59,10.72S85.86,50,83.69,50H82.16a1.53,1.53,0,0,0,0,3.06h9.18c4.37,0,7.66-5.92,7.66-13.78,0-5.47-1.59-10-4-12.25C97.41,24.78,99,20.25,99,14.78ZM8.66,50c-2.18,0-4.6-4.58-4.6-10.72s2.42-10.72,4.6-10.72,4.59,4.58,4.59,10.72S10.83,50,8.66,50Zm0-24.5c-2.18,0-4.6-4.58-4.6-10.72S6.48,4.06,8.66,4.06s4.59,4.58,4.59,10.72S10.83,25.5,8.66,25.5ZM16.31,50H13.57c1.7-2.48,2.74-6.29,2.74-10.72s-1-8.24-2.74-10.72h2.74c2.18,0,4.6,4.58,4.6,10.72S18.49,50,16.31,50Zm0-24.5H13.57c1.7-2.48,2.74-6.29,2.74-10.72s-1-8.24-2.74-10.72h2.74c2.18,0,4.6,4.58,4.6,10.72S18.49,25.5,16.31,25.5Zm29.1,65.84V89.81H82.16v1.53c0,3.19-1.43,4.6-4.6,4.6H44.24A8.46,8.46,0,0,0,45.41,91.34ZM88.6,4.06h2.74c2.18,0,4.6,4.58,4.6,10.72S93.52,25.5,91.34,25.5H88.6c1.7-2.48,2.74-6.29,2.74-10.72S90.3,6.54,88.6,4.06ZM83.69,25.5H21.23C22.93,23,24,19.21,24,14.78s-1-8.24-2.74-10.72H83.69c2.17,0,4.59,4.58,4.59,10.72S85.86,25.5,83.69,25.5ZM95.94,39.28c0,6.14-2.42,10.72-4.6,10.72H88.6c1.7-2.48,2.74-6.29,2.74-10.72S90.3,31,88.6,28.56h2.74C93.52,28.56,95.94,33.14,95.94,39.28Z"></path><path d="M69.91,36.22H39.28a1.54,1.54,0,0,0-1.53,1.53v24.5a1.48,1.48,0,0,0,.34,1,.86.86,0,0,0,.18.2,1.26,1.26,0,0,0,.57.3.31.31,0,0,0,.18,0,.74.74,0,0,0,.26,0H69.91a1.54,1.54,0,0,0,1.53-1.53V37.75A1.54,1.54,0,0,0,69.91,36.22ZM42.65,60.72,50,52.33l7.35,8.39Zm25.73,0h-7l-2.1-2.39L63.78,55l4.6,3.44Zm0-6.13L64.7,51.84a1.5,1.5,0,0,0-1.84,0L57.29,56l-6.14-7a1.58,1.58,0,0,0-2.3,0l-8,9.19V39.28H68.38Z"></path><path d="M59.19,40.81a4.6,4.6,0,1,0,4.59,4.6A4.61,4.61,0,0,0,59.19,40.81Zm0,6.13a1.53,1.53,0,1,1,1.53-1.53A1.54,1.54,0,0,1,59.19,46.94Z"></path><path d="M62.25,68.38a1.54,1.54,0,0,1-1.53,1.53H39.28a1.54,1.54,0,0,1,0-3.07H60.72A1.54,1.54,0,0,1,62.25,68.38Z"></path><path d="M71.44,68.38a1.54,1.54,0,0,1-1.53,1.53H66.84a1.54,1.54,0,0,1,0-3.07h3.07A1.54,1.54,0,0,1,71.44,68.38Z"></path><path d="M62.25,80.63a1.54,1.54,0,0,1-1.53,1.53H39.28a1.54,1.54,0,0,1,0-3.07H60.72A1.54,1.54,0,0,1,62.25,80.63Z"></path><path d="M71.44,80.63a1.54,1.54,0,0,1-1.53,1.53H66.84a1.54,1.54,0,0,1,0-3.07h3.07A1.54,1.54,0,0,1,71.44,80.63Z"></path><path d="M71.44,74.5A1.54,1.54,0,0,1,69.91,76H48.47a1.53,1.53,0,0,1,0-3.06H69.91A1.54,1.54,0,0,1,71.44,74.5Z"></path><path d="M43.87,74.5A1.53,1.53,0,0,1,42.34,76H39.28a1.53,1.53,0,0,1,0-3.06h3.06A1.53,1.53,0,0,1,43.87,74.5Z"></path></svg>