<svg xmlns="http://www.w3.org/2000/svg" viewBox="0 0 100 100"><path d="M10.19,65.31a4.6,4.6,0,1,0,4.59,4.6A4.61,4.61,0,0,0,10.19,65.31Zm0,6.13a1.53,1.53,0,1,1,1.53-1.53A1.54,1.54,0,0,1,10.19,71.44Z"></path><path d="M91.34,68.38H19.24A9.18,9.18,0,1,0,8.66,79V97.47A1.54,1.54,0,0,0,10.19,99H22.44A1.54,1.54,0,0,0,24,97.47V89.81H83.69v7.66A1.54,1.54,0,0,0,85.22,99H97.47A1.54,1.54,0,0,0,99,97.47V76A7.65,7.65,0,0,0,91.34,68.38ZM4.06,69.91A6.13,6.13,0,1,1,10.19,76,6.12,6.12,0,0,1,4.06,69.91Zm16.85,26H11.72V89.81h9.19Zm75,0H86.75V89.81h9.19Zm0-9.19H11.72V79a9.2,9.2,0,0,0,7.52-7.52h72.1A4.6,4.6,0,0,1,95.94,76Z"></path><path d="M55.88,3.36,19.13,60a1.51,1.51,0,0,1-1.29.71,1.42,1.42,0,0,1-.82-.25,1.52,1.52,0,0,1-.46-2.11L51.78,4.06H47.34A7.66,7.66,0,0,0,40.9,7.55L6.88,60a1.53,1.53,0,1,1-2.57-1.65l34-52.48a10.65,10.65,0,0,1,9-4.88h7.25a1.53,1.53,0,0,1,1.29,2.36Z"></path><path d="M63.78,74.5a4.6,4.6,0,1,0,4.6,4.59A4.6,4.6,0,0,0,63.78,74.5Zm0,6.13a1.54,1.54,0,1,1,1.53-1.54A1.54,1.54,0,0,1,63.78,80.63Z"></path><path d="M76,74.5a4.6,4.6,0,1,0,4.6,4.59A4.6,4.6,0,0,0,76,74.5Zm0,6.13a1.54,1.54,0,1,1,1.53-1.54A1.54,1.54,0,0,1,76,80.63Z"></path><path d="M88.28,74.5a4.6,4.6,0,1,0,4.6,4.59A4.6,4.6,0,0,0,88.28,74.5Zm0,6.13a1.54,1.54,0,1,1,1.53-1.54A1.54,1.54,0,0,1,88.28,80.63Z"></path><path d="M53.06,79.09a1.54,1.54,0,0,1-1.53,1.54H36.22a1.54,1.54,0,0,1,0-3.07H51.53A1.54,1.54,0,0,1,53.06,79.09Z"></path><path d="M31.63,79.09a1.54,1.54,0,0,1-1.54,1.54H27a1.54,1.54,0,0,1,0-3.07h3.06A1.54,1.54,0,0,1,31.63,79.09Z"></path><path d="M88.28,63.78a1.54,1.54,0,0,1-1.53,1.53H25.5a1.53,1.53,0,0,1,0-3.06H86.75A1.54,1.54,0,0,1,88.28,63.78Z"></path><path d="M57.66,46.94v6.12a1.54,1.54,0,0,1-3.07,0V46.94a1.54,1.54,0,0,1,3.07,0Z"></path><path d="M63.15,56.76a1.53,1.53,0,0,1-1.09-2.61l4.34-4.34A1.53,1.53,0,1,1,68.56,52l-4.33,4.33A1.52,1.52,0,0,1,63.15,56.76Z"></path><path d="M50.18,56.31a1.46,1.46,0,0,1-1.08.44A1.47,1.47,0,0,1,48,56.31L43.69,52a1.53,1.53,0,1,1,2.16-2.16l4.33,4.33A1.52,1.52,0,0,1,50.18,56.31Z"></path></svg>