<svg xmlns="http://www.w3.org/2000/svg" viewBox="0 0 100 100"><path d="M50,80.63a6.13,6.13,0,0,1-6.12-6.13c0-2.8,4-10,4.78-11.47a1.61,1.61,0,0,1,2.68,0c.8,1.43,4.79,8.67,4.79,11.47A6.14,6.14,0,0,1,50,80.63ZM50,67c-1.64,3.18-3.06,6.44-3.06,7.48a3.06,3.06,0,0,0,6.12,0C53.06,73.46,51.64,70.2,50,67Z"></path><path d="M62.25,41.38V27a1.54,1.54,0,0,0-1.53-1.53H39.28A1.54,1.54,0,0,0,37.75,27V41.38c-2.27,1.12-7.66,4.44-7.66,10.15V94.41A4.61,4.61,0,0,0,34.69,99H65.31a4.61,4.61,0,0,0,4.6-4.59V51.53C69.91,45.82,64.52,42.5,62.25,41.38ZM59.19,28.56V40.81H57.66V28.56Zm-7.66,0h3.06V40.81H51.53Zm-6.12,0h3.06V40.81H45.41Zm-4.6,0h1.53V40.81H40.81Zm26,65.85a1.54,1.54,0,0,1-1.53,1.53H34.69a1.54,1.54,0,0,1-1.53-1.53V91.34H66.84Zm0-6.13H33.16V85.22H66.84Zm0-6.12H33.16V60.72H66.84Zm0-24.5H33.16V54.59H66.84ZM33.16,51.53c0-4.44,5.22-7.1,6.44-7.65H60.4c1.22.55,6.44,3.18,6.44,7.65Z"></path><path d="M38.94,21.56a17.22,17.22,0,0,0-5.78-4.7V2.53A1.54,1.54,0,0,0,31.63,1H10.19A1.54,1.54,0,0,0,8.66,2.53V16.88C6.39,18,1,21.32,1,27V69.91A4.61,4.61,0,0,0,5.59,74.5H25.5a1.53,1.53,0,0,0,0-3.06H5.59a1.54,1.54,0,0,1-1.53-1.53V66.84H25.5a1.53,1.53,0,0,0,0-3.06H4.06V60.72H25.5a1.53,1.53,0,0,0,0-3.06H4.06V36.22h29.1a1.53,1.53,0,0,0,0-3.06H4.06V30.09h29.1a1.53,1.53,0,1,0,0-3.06H4.06c0-4.44,5.22-7.1,6.45-7.65H31.3a14.08,14.08,0,0,1,5.26,4.08,1.52,1.52,0,1,0,2.38-1.9ZM13.25,16.31H11.72V4.06h1.53Zm6.13,0H16.31V4.06h3.07Zm6.12,0H22.44V4.06H25.5Zm4.59,0H28.56V4.06h1.53Z"></path><path d="M22.24,38.53a1.6,1.6,0,0,0-2.67,0C18.78,40,14.78,47.2,14.78,50A6.13,6.13,0,1,0,27,50C27,47.2,23,40,22.24,38.53ZM20.91,53.06A3.07,3.07,0,0,1,17.84,50c0-1,1.43-4.3,3.07-7.49C22.54,45.7,24,49,24,50A3.07,3.07,0,0,1,20.91,53.06Z"></path><path d="M91.34,16.88V2.53A1.54,1.54,0,0,0,89.81,1H68.38a1.54,1.54,0,0,0-1.54,1.53V16.86a17.22,17.22,0,0,0-5.78,4.7,1.52,1.52,0,1,0,2.38,1.9,14.08,14.08,0,0,1,5.26-4.08H89.49c1.23.55,6.45,3.18,6.45,7.65H66.84a1.53,1.53,0,0,0,0,3.06h29.1v3.07H66.84a1.53,1.53,0,0,0,0,3.06h29.1V57.66H74.5a1.53,1.53,0,0,0,0,3.06H95.94v3.06H74.5a1.53,1.53,0,0,0,0,3.06H95.94v3.07a1.54,1.54,0,0,1-1.53,1.53H74.5a1.53,1.53,0,0,0,0,3.06H94.41A4.61,4.61,0,0,0,99,69.91V27C99,21.32,93.61,18,91.34,16.88Zm-19.9-.57H69.91V4.06h1.53Zm6.12,0H74.5V4.06h3.06Zm6.13,0H80.63V4.06h3.06Zm4.59,0H86.75V4.06h1.53Z"></path><path d="M79.09,56.13A6.13,6.13,0,0,1,73,50c0-2.8,4-10,4.79-11.47a1.6,1.6,0,0,1,2.67,0C81.23,40,85.22,47.2,85.22,50A6.14,6.14,0,0,1,79.09,56.13Zm0-13.62C77.45,45.7,76,49,76,50a3.07,3.07,0,0,0,6.13,0C82.16,49,80.73,45.7,79.09,42.51Z"></path></svg>